<mxfile host="app.diagrams.net" agent="Mozilla/5.0 (Macintosh; Intel Mac OS X 10_15_7) AppleWebKit/537.36 (KHTML, like Gecko) Chrome/127.0.0.0 Safari/537.36" version="24.7.5">
  <diagram name="Page-1" id="MdpVFVt1C24VA2dgtvB7">
    <mxGraphModel grid="1" page="1" gridSize="10" guides="1" tooltips="1" connect="1" arrows="1" fold="1" pageScale="1" pageWidth="850" pageHeight="1100" math="0" shadow="0">
      <root>
        <mxCell id="0" />
        <mxCell id="1" parent="0" />
        <mxCell id="CA_d9Xkf4OtrzHtj1WFr-3" style="edgeStyle=orthogonalEdgeStyle;rounded=0;orthogonalLoop=1;jettySize=auto;html=1;exitX=0.5;exitY=1;exitDx=0;exitDy=0;" edge="1" parent="1" source="CA_d9Xkf4OtrzHtj1WFr-1" target="CA_d9Xkf4OtrzHtj1WFr-2">
          <mxGeometry relative="1" as="geometry" />
        </mxCell>
        <mxCell id="CA_d9Xkf4OtrzHtj1WFr-1" value="Start" style="ellipse;whiteSpace=wrap;html=1;" vertex="1" parent="1">
          <mxGeometry x="95" y="50" width="90" height="60" as="geometry" />
        </mxCell>
        <mxCell id="CA_d9Xkf4OtrzHtj1WFr-5" style="edgeStyle=orthogonalEdgeStyle;rounded=0;orthogonalLoop=1;jettySize=auto;html=1;exitX=0.5;exitY=1;exitDx=0;exitDy=0;" edge="1" parent="1" source="CA_d9Xkf4OtrzHtj1WFr-2">
          <mxGeometry relative="1" as="geometry">
            <mxPoint x="140.33333333333326" y="260" as="targetPoint" />
          </mxGeometry>
        </mxCell>
        <mxCell id="CA_d9Xkf4OtrzHtj1WFr-2" value="Initialize deck (random generator)" style="rounded=0;whiteSpace=wrap;html=1;" vertex="1" parent="1">
          <mxGeometry x="80" y="160" width="120" height="60" as="geometry" />
        </mxCell>
        <mxCell id="CA_d9Xkf4OtrzHtj1WFr-9" style="edgeStyle=orthogonalEdgeStyle;rounded=0;orthogonalLoop=1;jettySize=auto;html=1;exitX=0.5;exitY=1;exitDx=0;exitDy=0;" edge="1" parent="1" source="CA_d9Xkf4OtrzHtj1WFr-6" target="CA_d9Xkf4OtrzHtj1WFr-8">
          <mxGeometry relative="1" as="geometry" />
        </mxCell>
        <mxCell id="CA_d9Xkf4OtrzHtj1WFr-6" value="Open card.dat file" style="shape=parallelogram;perimeter=parallelogramPerimeter;whiteSpace=wrap;html=1;fixedSize=1;" vertex="1" parent="1">
          <mxGeometry x="80" y="260" width="120" height="60" as="geometry" />
        </mxCell>
        <mxCell id="CA_d9Xkf4OtrzHtj1WFr-12" style="edgeStyle=orthogonalEdgeStyle;rounded=0;orthogonalLoop=1;jettySize=auto;html=1;exitX=0.5;exitY=1;exitDx=0;exitDy=0;entryX=0.5;entryY=0;entryDx=0;entryDy=0;" edge="1" parent="1" source="CA_d9Xkf4OtrzHtj1WFr-7" target="CA_d9Xkf4OtrzHtj1WFr-11">
          <mxGeometry relative="1" as="geometry" />
        </mxCell>
        <mxCell id="CA_d9Xkf4OtrzHtj1WFr-7" value="Deal player and dealer cards" style="rounded=0;whiteSpace=wrap;html=1;" vertex="1" parent="1">
          <mxGeometry x="80" y="450" width="120" height="60" as="geometry" />
        </mxCell>
        <mxCell id="CA_d9Xkf4OtrzHtj1WFr-10" style="edgeStyle=orthogonalEdgeStyle;rounded=0;orthogonalLoop=1;jettySize=auto;html=1;exitX=0.5;exitY=1;exitDx=0;exitDy=0;" edge="1" parent="1" source="CA_d9Xkf4OtrzHtj1WFr-8" target="CA_d9Xkf4OtrzHtj1WFr-7">
          <mxGeometry relative="1" as="geometry" />
        </mxCell>
        <mxCell id="CA_d9Xkf4OtrzHtj1WFr-8" value="Input player name" style="shape=parallelogram;perimeter=parallelogramPerimeter;whiteSpace=wrap;html=1;fixedSize=1;" vertex="1" parent="1">
          <mxGeometry x="80" y="360" width="120" height="60" as="geometry" />
        </mxCell>
        <mxCell id="CA_d9Xkf4OtrzHtj1WFr-14" style="edgeStyle=orthogonalEdgeStyle;rounded=0;orthogonalLoop=1;jettySize=auto;html=1;exitX=0.5;exitY=1;exitDx=0;exitDy=0;entryX=0.5;entryY=0;entryDx=0;entryDy=0;" edge="1" parent="1" source="CA_d9Xkf4OtrzHtj1WFr-11" target="CA_d9Xkf4OtrzHtj1WFr-13">
          <mxGeometry relative="1" as="geometry" />
        </mxCell>
        <mxCell id="CA_d9Xkf4OtrzHtj1WFr-11" value="Display initial hands" style="shape=parallelogram;perimeter=parallelogramPerimeter;whiteSpace=wrap;html=1;fixedSize=1;" vertex="1" parent="1">
          <mxGeometry x="80" y="560" width="120" height="60" as="geometry" />
        </mxCell>
        <mxCell id="CA_d9Xkf4OtrzHtj1WFr-13" value="A" style="ellipse;whiteSpace=wrap;html=1;aspect=fixed;" vertex="1" parent="1">
          <mxGeometry x="100" y="670" width="80" height="80" as="geometry" />
        </mxCell>
        <mxCell id="CA_d9Xkf4OtrzHtj1WFr-17" style="edgeStyle=orthogonalEdgeStyle;rounded=0;orthogonalLoop=1;jettySize=auto;html=1;exitX=0.5;exitY=1;exitDx=0;exitDy=0;entryX=0.5;entryY=0;entryDx=0;entryDy=0;" edge="1" parent="1" source="CA_d9Xkf4OtrzHtj1WFr-15" target="CA_d9Xkf4OtrzHtj1WFr-16">
          <mxGeometry relative="1" as="geometry" />
        </mxCell>
        <mxCell id="CA_d9Xkf4OtrzHtj1WFr-15" value="A" style="ellipse;whiteSpace=wrap;html=1;aspect=fixed;" vertex="1" parent="1">
          <mxGeometry x="345" y="50" width="80" height="80" as="geometry" />
        </mxCell>
        <mxCell id="CA_d9Xkf4OtrzHtj1WFr-16" value="Initialize player total with hand dealt" style="rounded=0;whiteSpace=wrap;html=1;" vertex="1" parent="1">
          <mxGeometry x="325" y="170" width="120" height="60" as="geometry" />
        </mxCell>
        <mxCell id="CA_d9Xkf4OtrzHtj1WFr-22" value="" style="edgeStyle=orthogonalEdgeStyle;rounded=0;orthogonalLoop=1;jettySize=auto;html=1;" edge="1" parent="1" source="CA_d9Xkf4OtrzHtj1WFr-18" target="CA_d9Xkf4OtrzHtj1WFr-21">
          <mxGeometry relative="1" as="geometry" />
        </mxCell>
        <mxCell id="CA_d9Xkf4OtrzHtj1WFr-23" value="Stay" style="edgeLabel;html=1;align=center;verticalAlign=middle;resizable=0;points=[];" connectable="0" vertex="1" parent="CA_d9Xkf4OtrzHtj1WFr-22">
          <mxGeometry x="-0.1111" relative="1" as="geometry">
            <mxPoint as="offset" />
          </mxGeometry>
        </mxCell>
        <mxCell id="CA_d9Xkf4OtrzHtj1WFr-42" style="edgeStyle=orthogonalEdgeStyle;rounded=0;orthogonalLoop=1;jettySize=auto;html=1;" edge="1" parent="1" source="CA_d9Xkf4OtrzHtj1WFr-18" target="CA_d9Xkf4OtrzHtj1WFr-29">
          <mxGeometry relative="1" as="geometry" />
        </mxCell>
        <mxCell id="CA_d9Xkf4OtrzHtj1WFr-50" value="Hit" style="edgeLabel;html=1;align=center;verticalAlign=middle;resizable=0;points=[];" connectable="0" vertex="1" parent="CA_d9Xkf4OtrzHtj1WFr-42">
          <mxGeometry x="0.1067" y="-1" relative="1" as="geometry">
            <mxPoint as="offset" />
          </mxGeometry>
        </mxCell>
        <mxCell id="CA_d9Xkf4OtrzHtj1WFr-18" value="Hit or Stay" style="rhombus;whiteSpace=wrap;html=1;" vertex="1" parent="1">
          <mxGeometry x="345" y="470" width="80" height="80" as="geometry" />
        </mxCell>
        <mxCell id="CA_d9Xkf4OtrzHtj1WFr-54" style="edgeStyle=orthogonalEdgeStyle;rounded=0;orthogonalLoop=1;jettySize=auto;html=1;" edge="1" parent="1" source="CA_d9Xkf4OtrzHtj1WFr-21">
          <mxGeometry relative="1" as="geometry">
            <mxPoint x="530" y="600" as="targetPoint" />
          </mxGeometry>
        </mxCell>
        <mxCell id="CA_d9Xkf4OtrzHtj1WFr-101" style="edgeStyle=orthogonalEdgeStyle;rounded=0;orthogonalLoop=1;jettySize=auto;html=1;exitX=1;exitY=0.5;exitDx=0;exitDy=0;entryX=0.5;entryY=0;entryDx=0;entryDy=0;" edge="1" parent="1" source="CA_d9Xkf4OtrzHtj1WFr-21" target="CA_d9Xkf4OtrzHtj1WFr-100">
          <mxGeometry relative="1" as="geometry">
            <Array as="points">
              <mxPoint x="720" y="510" />
              <mxPoint x="720" y="720" />
            </Array>
          </mxGeometry>
        </mxCell>
        <mxCell id="CA_d9Xkf4OtrzHtj1WFr-21" value="Final Player Total" style="whiteSpace=wrap;html=1;" vertex="1" parent="1">
          <mxGeometry x="470" y="480" width="120" height="60" as="geometry" />
        </mxCell>
        <mxCell id="CA_d9Xkf4OtrzHtj1WFr-43" style="edgeStyle=orthogonalEdgeStyle;rounded=0;orthogonalLoop=1;jettySize=auto;html=1;exitX=0;exitY=0.5;exitDx=0;exitDy=0;entryX=0;entryY=0.5;entryDx=0;entryDy=0;" edge="1" parent="1" source="CA_d9Xkf4OtrzHtj1WFr-29" target="CA_d9Xkf4OtrzHtj1WFr-44">
          <mxGeometry relative="1" as="geometry">
            <mxPoint x="265" y="300" as="targetPoint" />
            <Array as="points">
              <mxPoint x="255" y="630" />
              <mxPoint x="255" y="280" />
            </Array>
          </mxGeometry>
        </mxCell>
        <mxCell id="CA_d9Xkf4OtrzHtj1WFr-29" value="Deal a card" style="shape=parallelogram;perimeter=parallelogramPerimeter;whiteSpace=wrap;html=1;fixedSize=1;" vertex="1" parent="1">
          <mxGeometry x="325" y="600" width="120" height="60" as="geometry" />
        </mxCell>
        <mxCell id="CA_d9Xkf4OtrzHtj1WFr-48" style="edgeStyle=orthogonalEdgeStyle;rounded=0;orthogonalLoop=1;jettySize=auto;html=1;exitX=0.5;exitY=1;exitDx=0;exitDy=0;entryX=0.5;entryY=0;entryDx=0;entryDy=0;" edge="1" parent="1" source="CA_d9Xkf4OtrzHtj1WFr-35" target="CA_d9Xkf4OtrzHtj1WFr-18">
          <mxGeometry relative="1" as="geometry" />
        </mxCell>
        <mxCell id="CA_d9Xkf4OtrzHtj1WFr-49" value="No" style="edgeLabel;html=1;align=center;verticalAlign=middle;resizable=0;points=[];" connectable="0" vertex="1" parent="CA_d9Xkf4OtrzHtj1WFr-48">
          <mxGeometry x="-0.0167" y="3" relative="1" as="geometry">
            <mxPoint as="offset" />
          </mxGeometry>
        </mxCell>
        <mxCell id="CA_d9Xkf4OtrzHtj1WFr-52" value="" style="edgeStyle=orthogonalEdgeStyle;rounded=0;orthogonalLoop=1;jettySize=auto;html=1;" edge="1" parent="1" source="CA_d9Xkf4OtrzHtj1WFr-35">
          <mxGeometry relative="1" as="geometry">
            <mxPoint x="470" y="390" as="targetPoint" />
          </mxGeometry>
        </mxCell>
        <mxCell id="CA_d9Xkf4OtrzHtj1WFr-35" value="Total &amp;gt; 21" style="rhombus;whiteSpace=wrap;html=1;" vertex="1" parent="1">
          <mxGeometry x="345" y="350" width="80" height="80" as="geometry" />
        </mxCell>
        <mxCell id="CA_d9Xkf4OtrzHtj1WFr-46" style="edgeStyle=orthogonalEdgeStyle;rounded=0;orthogonalLoop=1;jettySize=auto;html=1;" edge="1" parent="1" source="CA_d9Xkf4OtrzHtj1WFr-44" target="CA_d9Xkf4OtrzHtj1WFr-35">
          <mxGeometry relative="1" as="geometry" />
        </mxCell>
        <mxCell id="CA_d9Xkf4OtrzHtj1WFr-44" value="Calculate player total" style="rounded=0;whiteSpace=wrap;html=1;" vertex="1" parent="1">
          <mxGeometry x="325" y="250" width="120" height="60" as="geometry" />
        </mxCell>
        <mxCell id="CA_d9Xkf4OtrzHtj1WFr-47" style="edgeStyle=orthogonalEdgeStyle;rounded=0;orthogonalLoop=1;jettySize=auto;html=1;exitX=0.5;exitY=1;exitDx=0;exitDy=0;entryX=0.503;entryY=-0.078;entryDx=0;entryDy=0;entryPerimeter=0;" edge="1" parent="1" source="CA_d9Xkf4OtrzHtj1WFr-16" target="CA_d9Xkf4OtrzHtj1WFr-44">
          <mxGeometry relative="1" as="geometry" />
        </mxCell>
        <mxCell id="CA_d9Xkf4OtrzHtj1WFr-53" value="Player is bust" style="shape=parallelogram;perimeter=parallelogramPerimeter;whiteSpace=wrap;html=1;fixedSize=1;" vertex="1" parent="1">
          <mxGeometry x="465" y="360" width="120" height="60" as="geometry" />
        </mxCell>
        <mxCell id="CA_d9Xkf4OtrzHtj1WFr-55" value="B" style="ellipse;whiteSpace=wrap;html=1;aspect=fixed;" vertex="1" parent="1">
          <mxGeometry x="490" y="600" width="80" height="80" as="geometry" />
        </mxCell>
        <mxCell id="CA_d9Xkf4OtrzHtj1WFr-77" style="edgeStyle=orthogonalEdgeStyle;rounded=0;orthogonalLoop=1;jettySize=auto;html=1;exitX=0.5;exitY=1;exitDx=0;exitDy=0;entryX=0.5;entryY=0;entryDx=0;entryDy=0;" edge="1" parent="1" source="CA_d9Xkf4OtrzHtj1WFr-78" target="CA_d9Xkf4OtrzHtj1WFr-79">
          <mxGeometry relative="1" as="geometry" />
        </mxCell>
        <mxCell id="CA_d9Xkf4OtrzHtj1WFr-78" value="B" style="ellipse;whiteSpace=wrap;html=1;aspect=fixed;" vertex="1" parent="1">
          <mxGeometry x="1100" y="50" width="80" height="80" as="geometry" />
        </mxCell>
        <mxCell id="CA_d9Xkf4OtrzHtj1WFr-79" value="Initialize dealer total with hand dealt" style="rounded=0;whiteSpace=wrap;html=1;" vertex="1" parent="1">
          <mxGeometry x="1080" y="170" width="120" height="60" as="geometry" />
        </mxCell>
        <mxCell id="CA_d9Xkf4OtrzHtj1WFr-80" value="" style="edgeStyle=orthogonalEdgeStyle;rounded=0;orthogonalLoop=1;jettySize=auto;html=1;" edge="1" parent="1" source="CA_d9Xkf4OtrzHtj1WFr-84" target="CA_d9Xkf4OtrzHtj1WFr-86">
          <mxGeometry relative="1" as="geometry" />
        </mxCell>
        <mxCell id="CA_d9Xkf4OtrzHtj1WFr-81" value="Stay" style="edgeLabel;html=1;align=center;verticalAlign=middle;resizable=0;points=[];" connectable="0" vertex="1" parent="CA_d9Xkf4OtrzHtj1WFr-80">
          <mxGeometry x="-0.1111" relative="1" as="geometry">
            <mxPoint as="offset" />
          </mxGeometry>
        </mxCell>
        <mxCell id="CA_d9Xkf4OtrzHtj1WFr-82" style="edgeStyle=orthogonalEdgeStyle;rounded=0;orthogonalLoop=1;jettySize=auto;html=1;" edge="1" parent="1" source="CA_d9Xkf4OtrzHtj1WFr-84" target="CA_d9Xkf4OtrzHtj1WFr-88">
          <mxGeometry relative="1" as="geometry" />
        </mxCell>
        <mxCell id="CA_d9Xkf4OtrzHtj1WFr-83" value="Hit" style="edgeLabel;html=1;align=center;verticalAlign=middle;resizable=0;points=[];" connectable="0" vertex="1" parent="CA_d9Xkf4OtrzHtj1WFr-82">
          <mxGeometry x="0.1067" y="-1" relative="1" as="geometry">
            <mxPoint as="offset" />
          </mxGeometry>
        </mxCell>
        <mxCell id="CA_d9Xkf4OtrzHtj1WFr-84" value="Hit or Stay" style="rhombus;whiteSpace=wrap;html=1;" vertex="1" parent="1">
          <mxGeometry x="1100" y="470" width="80" height="80" as="geometry" />
        </mxCell>
        <mxCell id="CA_d9Xkf4OtrzHtj1WFr-85" style="edgeStyle=orthogonalEdgeStyle;rounded=0;orthogonalLoop=1;jettySize=auto;html=1;entryX=0.5;entryY=0;entryDx=0;entryDy=0;" edge="1" parent="1" source="CA_d9Xkf4OtrzHtj1WFr-86" target="CA_d9Xkf4OtrzHtj1WFr-100">
          <mxGeometry relative="1" as="geometry">
            <mxPoint x="1285" y="600" as="targetPoint" />
          </mxGeometry>
        </mxCell>
        <mxCell id="CA_d9Xkf4OtrzHtj1WFr-86" value="Final Dealer Total" style="whiteSpace=wrap;html=1;" vertex="1" parent="1">
          <mxGeometry x="1225" y="480" width="120" height="60" as="geometry" />
        </mxCell>
        <mxCell id="CA_d9Xkf4OtrzHtj1WFr-87" style="edgeStyle=orthogonalEdgeStyle;rounded=0;orthogonalLoop=1;jettySize=auto;html=1;exitX=0;exitY=0.5;exitDx=0;exitDy=0;entryX=0;entryY=0.5;entryDx=0;entryDy=0;" edge="1" parent="1" source="CA_d9Xkf4OtrzHtj1WFr-88" target="CA_d9Xkf4OtrzHtj1WFr-94">
          <mxGeometry relative="1" as="geometry">
            <mxPoint x="1020" y="300" as="targetPoint" />
            <Array as="points">
              <mxPoint x="1010" y="630" />
              <mxPoint x="1010" y="280" />
            </Array>
          </mxGeometry>
        </mxCell>
        <mxCell id="CA_d9Xkf4OtrzHtj1WFr-88" value="Deal a card" style="shape=parallelogram;perimeter=parallelogramPerimeter;whiteSpace=wrap;html=1;fixedSize=1;" vertex="1" parent="1">
          <mxGeometry x="1080" y="600" width="120" height="60" as="geometry" />
        </mxCell>
        <mxCell id="CA_d9Xkf4OtrzHtj1WFr-89" style="edgeStyle=orthogonalEdgeStyle;rounded=0;orthogonalLoop=1;jettySize=auto;html=1;exitX=0.5;exitY=1;exitDx=0;exitDy=0;entryX=0.5;entryY=0;entryDx=0;entryDy=0;" edge="1" parent="1" source="CA_d9Xkf4OtrzHtj1WFr-92" target="CA_d9Xkf4OtrzHtj1WFr-84">
          <mxGeometry relative="1" as="geometry" />
        </mxCell>
        <mxCell id="CA_d9Xkf4OtrzHtj1WFr-90" value="No" style="edgeLabel;html=1;align=center;verticalAlign=middle;resizable=0;points=[];" connectable="0" vertex="1" parent="CA_d9Xkf4OtrzHtj1WFr-89">
          <mxGeometry x="-0.0167" y="3" relative="1" as="geometry">
            <mxPoint as="offset" />
          </mxGeometry>
        </mxCell>
        <mxCell id="CA_d9Xkf4OtrzHtj1WFr-91" value="" style="edgeStyle=orthogonalEdgeStyle;rounded=0;orthogonalLoop=1;jettySize=auto;html=1;" edge="1" parent="1" source="CA_d9Xkf4OtrzHtj1WFr-92">
          <mxGeometry relative="1" as="geometry">
            <mxPoint x="1225" y="390" as="targetPoint" />
          </mxGeometry>
        </mxCell>
        <mxCell id="CA_d9Xkf4OtrzHtj1WFr-92" value="Total &amp;gt; 21" style="rhombus;whiteSpace=wrap;html=1;" vertex="1" parent="1">
          <mxGeometry x="1100" y="350" width="80" height="80" as="geometry" />
        </mxCell>
        <mxCell id="CA_d9Xkf4OtrzHtj1WFr-93" style="edgeStyle=orthogonalEdgeStyle;rounded=0;orthogonalLoop=1;jettySize=auto;html=1;" edge="1" parent="1" source="CA_d9Xkf4OtrzHtj1WFr-94" target="CA_d9Xkf4OtrzHtj1WFr-92">
          <mxGeometry relative="1" as="geometry" />
        </mxCell>
        <mxCell id="CA_d9Xkf4OtrzHtj1WFr-94" value="Calculate dealer total" style="rounded=0;whiteSpace=wrap;html=1;" vertex="1" parent="1">
          <mxGeometry x="1080" y="250" width="120" height="60" as="geometry" />
        </mxCell>
        <mxCell id="CA_d9Xkf4OtrzHtj1WFr-95" style="edgeStyle=orthogonalEdgeStyle;rounded=0;orthogonalLoop=1;jettySize=auto;html=1;exitX=0.5;exitY=1;exitDx=0;exitDy=0;entryX=0.503;entryY=-0.078;entryDx=0;entryDy=0;entryPerimeter=0;" edge="1" parent="1" source="CA_d9Xkf4OtrzHtj1WFr-79" target="CA_d9Xkf4OtrzHtj1WFr-94">
          <mxGeometry relative="1" as="geometry" />
        </mxCell>
        <mxCell id="CA_d9Xkf4OtrzHtj1WFr-96" value="Dealer is bust" style="shape=parallelogram;perimeter=parallelogramPerimeter;whiteSpace=wrap;html=1;fixedSize=1;" vertex="1" parent="1">
          <mxGeometry x="1220" y="360" width="120" height="60" as="geometry" />
        </mxCell>
        <mxCell id="CA_d9Xkf4OtrzHtj1WFr-111" style="edgeStyle=orthogonalEdgeStyle;rounded=0;orthogonalLoop=1;jettySize=auto;html=1;entryX=0.5;entryY=0;entryDx=0;entryDy=0;" edge="1" parent="1" source="CA_d9Xkf4OtrzHtj1WFr-100" target="CA_d9Xkf4OtrzHtj1WFr-106">
          <mxGeometry relative="1" as="geometry" />
        </mxCell>
        <mxCell id="CA_d9Xkf4OtrzHtj1WFr-114" value="Player &amp;gt; Dealer" style="edgeLabel;html=1;align=center;verticalAlign=middle;resizable=0;points=[];" connectable="0" vertex="1" parent="CA_d9Xkf4OtrzHtj1WFr-111">
          <mxGeometry x="-0.0871" y="2" relative="1" as="geometry">
            <mxPoint as="offset" />
          </mxGeometry>
        </mxCell>
        <mxCell id="CA_d9Xkf4OtrzHtj1WFr-112" value="Dealer &amp;gt; Player" style="edgeStyle=orthogonalEdgeStyle;rounded=0;orthogonalLoop=1;jettySize=auto;html=1;exitX=1;exitY=0.5;exitDx=0;exitDy=0;" edge="1" parent="1" source="CA_d9Xkf4OtrzHtj1WFr-100" target="CA_d9Xkf4OtrzHtj1WFr-108">
          <mxGeometry relative="1" as="geometry" />
        </mxCell>
        <mxCell id="CA_d9Xkf4OtrzHtj1WFr-113" style="edgeStyle=orthogonalEdgeStyle;rounded=0;orthogonalLoop=1;jettySize=auto;html=1;exitX=0.5;exitY=1;exitDx=0;exitDy=0;" edge="1" parent="1" source="CA_d9Xkf4OtrzHtj1WFr-100" target="CA_d9Xkf4OtrzHtj1WFr-107">
          <mxGeometry relative="1" as="geometry" />
        </mxCell>
        <mxCell id="CA_d9Xkf4OtrzHtj1WFr-115" value="Equals" style="edgeLabel;html=1;align=center;verticalAlign=middle;resizable=0;points=[];" connectable="0" vertex="1" parent="CA_d9Xkf4OtrzHtj1WFr-113">
          <mxGeometry x="-0.2014" y="-1" relative="1" as="geometry">
            <mxPoint as="offset" />
          </mxGeometry>
        </mxCell>
        <mxCell id="CA_d9Xkf4OtrzHtj1WFr-100" value="Compare totals" style="rhombus;whiteSpace=wrap;html=1;" vertex="1" parent="1">
          <mxGeometry x="1245" y="720" width="80" height="80" as="geometry" />
        </mxCell>
        <mxCell id="CA_d9Xkf4OtrzHtj1WFr-110" style="edgeStyle=orthogonalEdgeStyle;rounded=0;orthogonalLoop=1;jettySize=auto;html=1;exitX=1;exitY=0.5;exitDx=0;exitDy=0;entryX=0.5;entryY=0;entryDx=0;entryDy=0;" edge="1" parent="1" source="CA_d9Xkf4OtrzHtj1WFr-53" target="CA_d9Xkf4OtrzHtj1WFr-100">
          <mxGeometry relative="1" as="geometry">
            <mxPoint x="755" y="430" as="sourcePoint" />
            <Array as="points">
              <mxPoint x="755" y="390" />
              <mxPoint x="755" y="720" />
            </Array>
          </mxGeometry>
        </mxCell>
        <mxCell id="CA_d9Xkf4OtrzHtj1WFr-109" style="edgeStyle=orthogonalEdgeStyle;rounded=0;orthogonalLoop=1;jettySize=auto;html=1;exitX=1;exitY=0.5;exitDx=0;exitDy=0;entryX=0.5;entryY=0;entryDx=0;entryDy=0;" edge="1" parent="1" source="CA_d9Xkf4OtrzHtj1WFr-96" target="CA_d9Xkf4OtrzHtj1WFr-100">
          <mxGeometry relative="1" as="geometry">
            <mxPoint x="1410" y="430" as="sourcePoint" />
            <Array as="points">
              <mxPoint x="1410" y="390" />
              <mxPoint x="1410" y="680" />
              <mxPoint x="1285" y="680" />
            </Array>
          </mxGeometry>
        </mxCell>
        <mxCell id="pQjNvXrZmI8d75niiQMT-5" style="edgeStyle=orthogonalEdgeStyle;rounded=0;orthogonalLoop=1;jettySize=auto;html=1;exitX=0.5;exitY=1;exitDx=0;exitDy=0;" edge="1" parent="1" source="CA_d9Xkf4OtrzHtj1WFr-106">
          <mxGeometry relative="1" as="geometry">
            <mxPoint x="1280" y="1010" as="targetPoint" />
          </mxGeometry>
        </mxCell>
        <mxCell id="CA_d9Xkf4OtrzHtj1WFr-106" value="Player wins" style="shape=parallelogram;perimeter=parallelogramPerimeter;whiteSpace=wrap;html=1;fixedSize=1;" vertex="1" parent="1">
          <mxGeometry x="1010" y="870" width="120" height="60" as="geometry" />
        </mxCell>
        <mxCell id="pQjNvXrZmI8d75niiQMT-3" style="edgeStyle=orthogonalEdgeStyle;rounded=0;orthogonalLoop=1;jettySize=auto;html=1;exitX=0.5;exitY=1;exitDx=0;exitDy=0;entryX=0.5;entryY=0;entryDx=0;entryDy=0;" edge="1" parent="1" source="CA_d9Xkf4OtrzHtj1WFr-107">
          <mxGeometry relative="1" as="geometry">
            <mxPoint x="1285" y="1010" as="targetPoint" />
          </mxGeometry>
        </mxCell>
        <mxCell id="CA_d9Xkf4OtrzHtj1WFr-107" value="It is a tie" style="shape=parallelogram;perimeter=parallelogramPerimeter;whiteSpace=wrap;html=1;fixedSize=1;" vertex="1" parent="1">
          <mxGeometry x="1225" y="870" width="120" height="60" as="geometry" />
        </mxCell>
        <mxCell id="pQjNvXrZmI8d75niiQMT-4" style="edgeStyle=orthogonalEdgeStyle;rounded=0;orthogonalLoop=1;jettySize=auto;html=1;exitX=0.5;exitY=1;exitDx=0;exitDy=0;entryX=0.5;entryY=0;entryDx=0;entryDy=0;" edge="1" parent="1" source="CA_d9Xkf4OtrzHtj1WFr-108">
          <mxGeometry relative="1" as="geometry">
            <mxPoint x="1285" y="1010" as="targetPoint" />
          </mxGeometry>
        </mxCell>
        <mxCell id="CA_d9Xkf4OtrzHtj1WFr-108" value="Dealer wins" style="shape=parallelogram;perimeter=parallelogramPerimeter;whiteSpace=wrap;html=1;fixedSize=1;" vertex="1" parent="1">
          <mxGeometry x="1420" y="870" width="120" height="60" as="geometry" />
        </mxCell>
        <mxCell id="CA_d9Xkf4OtrzHtj1WFr-122" value="Blackjack Game&amp;nbsp;" style="text;html=1;align=center;verticalAlign=middle;whiteSpace=wrap;rounded=0;" vertex="1" parent="1">
          <mxGeometry x="310" y="10" width="140" height="30" as="geometry" />
        </mxCell>
        <mxCell id="CA_d9Xkf4OtrzHtj1WFr-123" value="Blackjack Game&amp;nbsp;" style="text;html=1;align=center;verticalAlign=middle;whiteSpace=wrap;rounded=0;" vertex="1" parent="1">
          <mxGeometry x="1150" y="10" width="140" height="30" as="geometry" />
        </mxCell>
        <mxCell id="CA_d9Xkf4OtrzHtj1WFr-124" value="Akshay Balaji" style="text;html=1;align=center;verticalAlign=middle;whiteSpace=wrap;rounded=0;" vertex="1" parent="1">
          <mxGeometry x="660" y="1000" width="110" height="30" as="geometry" />
        </mxCell>
        <mxCell id="AhgndJrBWjPpnP9NUR7K-3" style="edgeStyle=orthogonalEdgeStyle;rounded=0;orthogonalLoop=1;jettySize=auto;html=1;exitX=0.5;exitY=1;exitDx=0;exitDy=0;entryX=0.5;entryY=0;entryDx=0;entryDy=0;" edge="1" parent="1" source="AhgndJrBWjPpnP9NUR7K-1" target="AhgndJrBWjPpnP9NUR7K-2">
          <mxGeometry relative="1" as="geometry" />
        </mxCell>
        <mxCell id="AhgndJrBWjPpnP9NUR7K-1" value="Compile leaderboard, player totals, player winnings" style="rounded=0;whiteSpace=wrap;html=1;" vertex="1" parent="1">
          <mxGeometry x="365" y="1250" width="120" height="60" as="geometry" />
        </mxCell>
        <mxCell id="AhgndJrBWjPpnP9NUR7K-5" style="edgeStyle=orthogonalEdgeStyle;rounded=0;orthogonalLoop=1;jettySize=auto;html=1;exitX=0;exitY=0.5;exitDx=0;exitDy=0;entryX=1;entryY=0.5;entryDx=0;entryDy=0;" edge="1" parent="1" source="AhgndJrBWjPpnP9NUR7K-2" target="AhgndJrBWjPpnP9NUR7K-4">
          <mxGeometry relative="1" as="geometry" />
        </mxCell>
        <mxCell id="AhgndJrBWjPpnP9NUR7K-2" value="Display leaderboard, player totals, player winnings" style="shape=parallelogram;perimeter=parallelogramPerimeter;whiteSpace=wrap;html=1;fixedSize=1;" vertex="1" parent="1">
          <mxGeometry x="370" y="1340" width="120" height="60" as="geometry" />
        </mxCell>
        <mxCell id="AhgndJrBWjPpnP9NUR7K-7" style="edgeStyle=orthogonalEdgeStyle;rounded=0;orthogonalLoop=1;jettySize=auto;html=1;exitX=0.5;exitY=1;exitDx=0;exitDy=0;entryX=0.5;entryY=0;entryDx=0;entryDy=0;" edge="1" parent="1" source="AhgndJrBWjPpnP9NUR7K-4" target="AhgndJrBWjPpnP9NUR7K-6">
          <mxGeometry relative="1" as="geometry" />
        </mxCell>
        <mxCell id="AhgndJrBWjPpnP9NUR7K-4" value="Get player name to search" style="shape=parallelogram;perimeter=parallelogramPerimeter;whiteSpace=wrap;html=1;fixedSize=1;" vertex="1" parent="1">
          <mxGeometry x="200" y="1340" width="120" height="60" as="geometry" />
        </mxCell>
        <mxCell id="AhgndJrBWjPpnP9NUR7K-9" style="edgeStyle=orthogonalEdgeStyle;rounded=0;orthogonalLoop=1;jettySize=auto;html=1;entryX=0;entryY=0.5;entryDx=0;entryDy=0;" edge="1" parent="1" source="AhgndJrBWjPpnP9NUR7K-6" target="AhgndJrBWjPpnP9NUR7K-8">
          <mxGeometry relative="1" as="geometry" />
        </mxCell>
        <mxCell id="AhgndJrBWjPpnP9NUR7K-6" value="Search for player and get totals for the player" style="rounded=0;whiteSpace=wrap;html=1;" vertex="1" parent="1">
          <mxGeometry x="200" y="1440" width="120" height="60" as="geometry" />
        </mxCell>
        <mxCell id="AhgndJrBWjPpnP9NUR7K-11" style="edgeStyle=orthogonalEdgeStyle;rounded=0;orthogonalLoop=1;jettySize=auto;html=1;entryX=0.5;entryY=0;entryDx=0;entryDy=0;" edge="1" parent="1" source="AhgndJrBWjPpnP9NUR7K-8" target="AhgndJrBWjPpnP9NUR7K-10">
          <mxGeometry relative="1" as="geometry" />
        </mxCell>
        <mxCell id="AhgndJrBWjPpnP9NUR7K-8" value="Display details for player" style="shape=parallelogram;perimeter=parallelogramPerimeter;whiteSpace=wrap;html=1;fixedSize=1;" vertex="1" parent="1">
          <mxGeometry x="370" y="1440" width="120" height="60" as="geometry" />
        </mxCell>
        <mxCell id="AhgndJrBWjPpnP9NUR7K-10" value="Exit" style="ellipse;whiteSpace=wrap;html=1;" vertex="1" parent="1">
          <mxGeometry x="370" y="1530" width="120" height="80" as="geometry" />
        </mxCell>
        <mxCell id="AhgndJrBWjPpnP9NUR7K-12" value="C" style="ellipse;whiteSpace=wrap;html=1;aspect=fixed;" vertex="1" parent="1">
          <mxGeometry x="690" y="680" width="80" height="80" as="geometry" />
        </mxCell>
        <mxCell id="AhgndJrBWjPpnP9NUR7K-13" value="C" style="ellipse;whiteSpace=wrap;html=1;aspect=fixed;" vertex="1" parent="1">
          <mxGeometry x="1000" y="680" width="80" height="80" as="geometry" />
        </mxCell>
        <mxCell id="AhgndJrBWjPpnP9NUR7K-14" value="D" style="ellipse;whiteSpace=wrap;html=1;aspect=fixed;" vertex="1" parent="1">
          <mxGeometry x="1245" y="1010" width="80" height="80" as="geometry" />
        </mxCell>
        <mxCell id="AhgndJrBWjPpnP9NUR7K-16" style="edgeStyle=orthogonalEdgeStyle;rounded=0;orthogonalLoop=1;jettySize=auto;html=1;entryX=0.5;entryY=0;entryDx=0;entryDy=0;" edge="1" parent="1" source="AhgndJrBWjPpnP9NUR7K-15" target="AhgndJrBWjPpnP9NUR7K-1">
          <mxGeometry relative="1" as="geometry" />
        </mxCell>
        <mxCell id="AhgndJrBWjPpnP9NUR7K-15" value="D" style="ellipse;whiteSpace=wrap;html=1;aspect=fixed;" vertex="1" parent="1">
          <mxGeometry x="385" y="1140" width="80" height="80" as="geometry" />
        </mxCell>
      </root>
    </mxGraphModel>
  </diagram>
</mxfile>
